<svg preserveAspectRatio="none" overflow="visible" style="display: block;" width="14.5723" height="14.5723" viewBox="0 0 14.5723 14.5723" fill="none" xmlns="http://www.w3.org/2000/svg">
<g id="Subtract">
<path d="M3.29814 14.5723H0.289412V4.8571H3.29814V14.5723Z" fill="#9BD700"></path>
<path d="M11.0367 4.55993C13.0986 4.55993 14.5723 5.81787 14.5723 8.42065V14.5723H11.5783V9.47305C11.5783 8.07465 11.0468 7.29318 9.94022 7.29316C8.73659 7.29316 8.10723 8.10645 8.10723 9.47305V14.5723H5.22185V4.8571H8.10723V6.16555C8.11085 6.15888 8.97909 4.55995 11.0367 4.55993Z" fill="#9BD700"></path>
<path d="M1.77944 0C2.76266 1.22044e-05 3.55813 0.802396 3.55813 1.79261C3.55813 2.78282 2.76188 3.5852 1.77944 3.58521C0.796202 3.58521 1.2527e-06 2.78282 0 1.79261C0 0.802389 0.796201 0 1.77944 0Z" fill="#9BD700"></path>
</g>
</svg>