<svg width="50" height="48" viewBox="0 0 50 48" fill="none" xmlns="http://www.w3.org/2000/svg">
<path d="M19.3348 0.0345197C19.1881 0.0604094 18.9896 0.094929 18.817 0.120819C18.6444 0.155338 18.4718 0.189857 18.2992 0.233007C18.1266 0.276156 17.954 0.319306 17.7814 0.379716C17.6088 0.431495 17.4362 0.491904 17.2636 0.552313C17.091 0.621353 16.9184 0.690392 16.7458 0.768061C16.5732 0.84573 16.4006 0.923399 16.228 1.01833C16.0554 1.10463 15.8828 1.19956 15.7102 1.29448C15.5376 1.39804 15.3651 1.5016 15.1925 1.62242C15.0199 1.74324 14.8473 1.87269 14.6747 2.01077C14.5021 2.15747 14.3208 2.32144 14.1569 2.47678C13.9929 2.63212 13.8376 2.77883 13.6908 2.94279C13.5355 3.09813 13.3888 3.27936 13.2594 3.45196C13.1213 3.62456 13.0091 3.79715 12.8969 3.96975C12.7761 4.14235 12.6725 4.31495 12.569 4.48755C12.4654 4.66014 12.3705 4.83274 12.2842 5.00534C12.1979 5.17794 12.1116 5.35053 12.0425 5.52313C11.9735 5.69573 11.9131 5.86833 11.8613 6.04093C11.8009 6.21352 11.7578 6.38612 11.7146 6.55872C11.6715 6.73132 11.6369 6.90392 11.6024 7.07651C11.5765 7.24911 11.542 7.42171 11.5161 7.59431C11.4989 7.76691 11.4902 7.9395 11.4816 8.1121C11.473 8.2847 11.4816 8.4573 11.4816 8.6299C11.4816 8.80249 11.473 8.97509 11.4816 9.14769C11.4902 9.32029 11.5075 9.49288 11.5334 9.66548C11.5593 9.83808 11.5852 10.0107 11.6197 10.1833C11.6542 10.3559 11.6887 10.5285 11.7405 10.7011C11.7836 10.8737 11.8527 11.0463 11.9045 11.2189C11.9649 11.3915 12.0253 11.5641 12.0857 11.7367C12.1461 11.9093 12.2151 12.0819 12.2842 12.2545C12.3618 12.427 12.4481 12.5996 12.5431 12.7722C12.638 12.9448 12.7416 13.1174 12.8451 13.29C12.9487 13.4626 13.0609 13.6352 13.1817 13.8078C13.2939 13.9804 13.4147 14.153 13.5441 14.3256C13.665 14.4982 13.7944 14.6708 13.9325 14.8434C14.0619 15.016 14.2 15.1886 14.3381 15.3612C14.4762 15.5338 14.6315 15.7064 14.761 15.879C14.8818 16.0516 15.0457 16.2328 15.0975 16.3968C15.1407 16.5608 15.1234 16.7593 15.0371 16.8628C14.9508 16.975 14.7523 17.0182 14.5884 17.0268C14.4244 17.0354 14.2432 16.9664 14.0706 16.9232C13.898 16.8887 13.7254 16.8456 13.5528 16.811C13.3802 16.7679 13.2076 16.7334 13.035 16.6988C12.8624 16.6643 12.6898 16.6298 12.5172 16.6039C12.3446 16.578 12.172 16.5521 11.9994 16.5349C11.8268 16.509 11.6542 16.4917 11.4816 16.4831C11.309 16.4745 11.1364 16.4831 10.9638 16.4831C10.7912 16.4831 10.6186 16.4831 10.446 16.4831C10.2734 16.4831 10.1008 16.4831 9.92822 16.4831C9.75562 16.4831 9.58302 16.4831 9.41042 16.4831C9.23782 16.4917 9.06523 16.4917 8.89263 16.509C8.72003 16.5262 8.54743 16.5521 8.37483 16.578C8.20224 16.6125 8.02964 16.6384 7.85704 16.673C7.68444 16.7075 7.51184 16.742 7.33925 16.7765C7.16665 16.8197 6.99405 16.8628 6.82145 16.9146C6.64885 16.9664 6.47626 17.0268 6.30366 17.0872C6.13106 17.1476 5.95846 17.208 5.78587 17.2771C5.61327 17.3375 5.44067 17.3979 5.26807 17.4755C5.09547 17.5532 4.92288 17.6395 4.75028 17.7258C4.57768 17.8207 4.40508 17.9243 4.23248 18.0279C4.05989 18.1314 3.88729 18.235 3.71469 18.3558C3.54209 18.468 3.36949 18.5974 3.1969 18.7269C3.0243 18.865 2.84307 19.0117 2.6791 19.167C2.51514 19.3137 2.35979 19.4604 2.21309 19.6158C2.06638 19.7711 1.91967 19.9437 1.79023 20.1077C1.65215 20.2803 1.5227 20.4529 1.40188 20.6254C1.28106 20.798 1.16024 20.9706 1.05668 21.1432C0.953125 21.3158 0.849564 21.4884 0.763265 21.661C0.676966 21.8336 0.607929 22.0062 0.53889 22.1788C0.469851 22.3514 0.409441 22.524 0.349031 22.6966C0.297252 22.8692 0.245472 23.0418 0.202322 23.2144C0.159173 23.387 0.116026 23.5596 0.0815067 23.7322C0.055617 23.9048 0.0297231 24.0774 0.0124633 24.25C0.0038334 24.4226 0.00383551 24.5952 0.00383551 24.7678C0.00383551 24.9404 -0.00479439 25.113 0.00383551 25.2856C0.0124654 25.4582 0.0297231 25.6308 0.0556128 25.8034C0.0815025 25.976 0.124656 26.1486 0.167806 26.3212C0.210955 26.4938 0.262733 26.6664 0.323143 26.839C0.374922 27.0116 0.435332 27.1842 0.513001 27.3568C0.590671 27.5294 0.66834 27.702 0.771898 27.8746C0.875457 28.0472 0.987646 28.2198 1.11709 28.3924C1.25517 28.565 1.40188 28.7462 1.56584 28.9101C1.72118 29.0741 1.90241 29.2381 2.07501 29.3762C2.24761 29.5142 2.42021 29.6264 2.5928 29.73C2.7654 29.8335 2.938 29.9285 3.1106 30.0061C3.2832 30.0838 3.45579 30.1442 3.62839 30.196C3.80099 30.2564 3.97359 30.2996 4.14619 30.3341C4.31878 30.3772 4.49138 30.4031 4.66398 30.429C4.83658 30.4463 5.00918 30.4549 5.18177 30.4635C5.35437 30.4635 5.52697 30.4722 5.69957 30.4549C5.87216 30.4463 6.04476 30.4204 6.21736 30.3945C6.38996 30.3686 6.56256 30.3427 6.73515 30.3082C6.90775 30.265 7.08035 30.2219 7.25295 30.1701C7.42555 30.127 7.59814 30.0579 7.77074 30.0061C7.94334 29.9457 8.11594 29.894 8.28854 29.8249C8.46113 29.7645 8.63373 29.6955 8.80633 29.6178C8.97893 29.5401 9.15152 29.4452 9.32412 29.3589C9.49672 29.2812 9.66932 29.1949 9.84192 29.1C10.0145 29.0051 10.1871 28.9101 10.3597 28.8152C10.5323 28.7203 10.7049 28.634 10.8775 28.5391C11.0501 28.4441 11.2227 28.3406 11.3953 28.2456C11.5679 28.1507 11.7405 28.0472 11.9131 27.9609C12.0857 27.8746 12.2583 27.7537 12.4309 27.7106C12.6035 27.6588 12.8106 27.6243 12.9228 27.6847C13.0436 27.7451 13.1299 27.9091 13.1213 28.0558C13.104 28.2025 12.9659 28.3924 12.8538 28.565C12.7502 28.7376 12.5949 28.9101 12.474 29.0827C12.3532 29.2553 12.2324 29.4279 12.1202 29.6005C12.008 29.7731 11.9045 29.9457 11.8009 30.1183C11.6887 30.2909 11.5852 30.4635 11.4816 30.6361C11.378 30.8087 11.2745 30.9813 11.1709 31.1539C11.076 31.3265 10.9724 31.4991 10.8775 31.6717C10.7826 31.8443 10.6876 32.0169 10.6013 32.1895C10.5064 32.3621 10.4288 32.5347 10.3511 32.7073C10.2734 32.8799 10.1957 33.0525 10.1181 33.2251C10.049 33.3977 9.97137 33.5703 9.90233 33.7429C9.83329 33.9155 9.78151 34.0881 9.71247 34.2607C9.65206 34.4333 9.56576 34.6059 9.50535 34.7785C9.44494 34.9511 9.40179 35.1237 9.35001 35.2963C9.29823 35.4689 9.25508 35.6415 9.2033 35.8141C9.16015 35.9867 9.117 36.1593 9.07385 36.3319C9.03933 36.5045 9.00482 36.6771 8.9703 36.8497C8.94441 37.0222 8.91852 37.1948 8.90126 37.3674C8.87537 37.54 8.84948 37.7126 8.83222 37.8852C8.81496 38.0578 8.81496 38.2304 8.80633 38.403C8.80633 38.5756 8.7977 38.7482 8.80633 38.9208C8.81496 39.0934 8.83222 39.266 8.85811 39.4386C8.87537 39.6112 8.90126 39.7838 8.93578 39.9564C8.96167 40.129 8.99619 40.3016 9.03934 40.4742C9.07386 40.6468 9.11701 40.8194 9.16879 40.992C9.22056 41.1646 9.27234 41.3372 9.34138 41.5098C9.41042 41.6824 9.48809 41.855 9.56576 42.0276C9.64343 42.2002 9.73836 42.3728 9.83329 42.5454C9.92822 42.718 10.0318 42.8906 10.1353 43.0632C10.2475 43.2358 10.3597 43.4084 10.4892 43.581C10.6186 43.7536 10.7653 43.9262 10.912 44.0988C11.0674 44.2714 11.2313 44.444 11.3953 44.5993C11.5593 44.7546 11.7405 44.9013 11.9131 45.0394C12.0857 45.1775 12.2583 45.2983 12.4309 45.4191C12.6035 45.5313 12.7761 45.6349 12.9487 45.7384C13.1213 45.842 13.2939 45.9542 13.4665 46.0491C13.6391 46.1354 13.8117 46.2217 13.9843 46.308C14.1569 46.3857 14.3295 46.4461 14.5021 46.5151C14.6747 46.5755 14.8473 46.6446 15.0199 46.6964C15.1925 46.7481 15.3651 46.7999 15.5376 46.8344C15.7102 46.869 15.8828 46.8949 16.0554 46.9207C16.228 46.9466 16.4006 46.9553 16.5732 46.9725C16.7458 46.9898 16.9184 47.0243 17.091 47.0243C17.2636 47.0329 17.4362 47.007 17.6088 46.9984C17.7814 46.9811 17.954 46.9553 18.1266 46.9294C18.2992 46.9035 18.4718 46.869 18.6444 46.8258C18.817 46.7827 18.9896 46.7395 19.1622 46.6877C19.3348 46.6273 19.5074 46.5669 19.68 46.4806C19.8526 46.4029 20.0252 46.308 20.1978 46.2045C20.3704 46.0923 20.543 45.9801 20.7156 45.8506C20.8882 45.7298 21.0608 45.6004 21.2248 45.4537C21.3801 45.2983 21.5268 45.1257 21.6649 44.9618C21.803 44.7978 21.9324 44.6166 22.0618 44.444C22.1827 44.2714 22.2949 44.0988 22.3984 43.9262C22.502 43.7536 22.5796 43.581 22.6659 43.4084C22.7436 43.2358 22.804 43.0632 22.8644 42.8906C22.9335 42.718 22.9939 42.5454 23.0457 42.3728C23.0974 42.2002 23.1406 42.0276 23.1837 41.855C23.2183 41.6824 23.2528 41.5098 23.2787 41.3372C23.3132 41.1646 23.3391 40.992 23.365 40.8194C23.3909 40.6468 23.3995 40.4742 23.4167 40.3016C23.434 40.129 23.4599 39.9564 23.4685 39.7838C23.4858 39.6112 23.4858 39.4386 23.503 39.266C23.5203 39.0934 23.5462 38.9208 23.5548 38.7482C23.5635 38.5756 23.5634 38.403 23.5634 38.2304C23.5634 38.0578 23.5634 37.8852 23.5634 37.7126C23.5634 37.54 23.5548 37.3674 23.5634 37.1948C23.5721 37.0222 23.5634 36.841 23.6152 36.6771C23.667 36.5131 23.7533 36.306 23.8655 36.2283C23.9863 36.1506 24.1848 36.1506 24.3143 36.2283C24.4523 36.306 24.5645 36.5131 24.6594 36.6771C24.7544 36.841 24.8234 37.0222 24.9097 37.1948C24.9874 37.3674 25.0564 37.54 25.1427 37.7126C25.2204 37.8852 25.3067 38.0578 25.4016 38.2304C25.4879 38.403 25.5915 38.5756 25.6864 38.7482C25.7813 38.9208 25.8763 39.0934 25.9798 39.266C26.0834 39.4386 26.1869 39.6112 26.3078 39.7838C26.4199 39.9564 26.5494 40.129 26.6702 40.3016C26.791 40.4742 26.9032 40.6468 27.0327 40.8194C27.1535 40.992 27.2916 41.1646 27.4296 41.3372C27.5764 41.5098 27.7317 41.6824 27.8784 41.855C28.0337 42.0276 28.1891 42.2088 28.3444 42.3728C28.5084 42.5368 28.6637 42.6835 28.8277 42.8388C28.9917 42.9941 29.1729 43.1581 29.3455 43.3048C29.5181 43.4515 29.6907 43.5982 29.8633 43.7277C30.0359 43.8658 30.2085 43.9866 30.3811 44.1074C30.5537 44.2368 30.7263 44.3577 30.8989 44.4698C31.0715 44.582 31.2441 44.6856 31.4167 44.7892C31.5893 44.8841 31.7619 44.979 31.9344 45.0653C32.107 45.1602 32.2796 45.2465 32.4522 45.3242C32.6248 45.4105 32.7974 45.4882 32.97 45.5572C33.1426 45.6263 33.3152 45.6953 33.4878 45.7557C33.6604 45.8161 33.833 45.8765 34.0056 45.9369C34.1782 45.9887 34.3508 46.0319 34.5234 46.0836C34.696 46.1268 34.8686 46.1786 35.0412 46.2217C35.2138 46.2562 35.3864 46.2908 35.559 46.3166C35.7316 46.3425 35.9042 46.3684 36.0768 46.3943C36.2494 46.4116 36.422 46.4202 36.5946 46.4375C36.7672 46.4547 36.9398 46.4892 37.1124 46.4979C37.285 46.5065 37.4576 46.5151 37.6302 46.5065C37.8028 46.4979 37.9754 46.472 38.148 46.4547C38.3206 46.4375 38.4932 46.4288 38.6658 46.4116C38.8384 46.3943 39.011 46.3684 39.1836 46.3339C39.3562 46.308 39.5288 46.2735 39.7014 46.239C39.874 46.1958 40.0466 46.1613 40.2191 46.1095C40.3917 46.0577 40.5643 45.9887 40.7369 45.9283C40.9095 45.8593 41.0821 45.7902 41.2547 45.7126C41.4273 45.6349 41.5999 45.5486 41.7725 45.4537C41.9451 45.3674 42.1177 45.2638 42.2903 45.1602C42.4629 45.0481 42.6355 44.9359 42.8081 44.815C42.9807 44.6856 43.1533 44.5648 43.3259 44.4181C43.4985 44.2627 43.6797 44.0901 43.8351 43.9262C43.999 43.7622 44.1457 43.581 44.2838 43.4084C44.4219 43.2358 44.5514 43.0632 44.6635 42.8906C44.7844 42.718 44.8879 42.5454 44.9828 42.3728C45.0778 42.2002 45.1554 42.0276 45.2331 41.855C45.3108 41.6824 45.3712 41.5098 45.423 41.3372C45.4834 41.1646 45.5352 40.992 45.5783 40.8194C45.6215 40.6468 45.6646 40.4742 45.6905 40.3016C45.7164 40.129 45.7337 39.9564 45.7423 39.7838C45.7509 39.6112 45.7423 39.4386 45.7423 39.266C45.7423 39.0934 45.7509 38.9208 45.7423 38.7482C45.7337 38.5756 45.725 38.403 45.6991 38.2304C45.6819 38.0578 45.6387 37.8852 45.5956 37.7126C45.5524 37.54 45.5093 37.3674 45.4489 37.1948C45.3971 37.0222 45.3367 36.8497 45.2676 36.6771C45.1986 36.5045 45.1123 36.3319 45.026 36.1593C44.9397 35.9867 44.8534 35.8141 44.7498 35.6415C44.6463 35.4689 44.5341 35.2963 44.4046 35.1237C44.2752 34.9511 44.1371 34.7785 43.9904 34.6059C43.8351 34.4419 43.6625 34.2693 43.4985 34.114C43.3259 33.9586 43.1533 33.8206 42.9807 33.6825C42.8081 33.5444 42.6355 33.415 42.4629 33.2855C42.2903 33.1647 42.1177 33.0525 41.9451 32.9403C41.7725 32.8281 41.5999 32.7332 41.4273 32.6296C41.2547 32.5347 41.0821 32.4398 40.9095 32.3448C40.7369 32.2499 40.5643 32.1636 40.3917 32.0859C40.2191 32.0083 40.0466 31.9306 39.874 31.8616C39.7014 31.7925 39.5288 31.7235 39.3562 31.6545C39.1836 31.5854 39.011 31.5164 38.8384 31.4473C38.6658 31.3869 38.4932 31.3179 38.3206 31.2575C38.148 31.1884 37.9754 31.128 37.8028 31.059C37.6302 30.9986 37.4576 30.9382 37.285 30.8691C37.1124 30.8001 36.9312 30.7483 36.7672 30.662C36.6032 30.5757 36.3788 30.4808 36.3012 30.3513C36.2235 30.2219 36.2235 30.0148 36.3012 29.8853C36.3788 29.7559 36.6032 29.6609 36.7672 29.5833C36.9312 29.5142 37.1124 29.4884 37.285 29.4366C37.4576 29.3934 37.6302 29.3503 37.8028 29.3071C37.9754 29.264 38.148 29.2208 38.3206 29.1777C38.4932 29.1345 38.6658 29.0914 38.8384 29.0569C39.011 29.0137 39.1836 28.9792 39.3562 28.936C39.5288 28.9015 39.7014 28.8584 39.874 28.8152C40.0466 28.7721 40.2191 28.7203 40.3917 28.6771C40.5643 28.6254 40.7369 28.565 40.9095 28.5132C41.0821 28.4614 41.2547 28.4182 41.4273 28.3665C41.5999 28.3061 41.7725 28.2629 41.9451 28.2025C42.1177 28.1421 42.2903 28.0817 42.4629 28.0126C42.6355 27.9436 42.8081 27.8746 42.9807 27.8055C43.1533 27.7365 43.3259 27.6674 43.4985 27.5898C43.6711 27.5121 43.8437 27.4258 44.0163 27.3309C44.1889 27.2446 44.3615 27.1583 44.5341 27.0547C44.7067 26.9512 44.8793 26.839 45.0519 26.7182C45.2245 26.5973 45.3971 26.4593 45.5697 26.3298C45.7423 26.2004 45.9235 26.0795 46.0875 25.9328C46.2514 25.7861 46.4154 25.6222 46.5707 25.4582C46.7261 25.2942 46.8814 25.113 47.0195 24.9404C47.1662 24.7678 47.3043 24.5952 47.4337 24.4226C47.5546 24.25 47.6754 24.0774 47.7789 23.9048C47.8911 23.7322 47.9947 23.5596 48.0982 23.387C48.1932 23.2144 48.2967 23.0418 48.383 22.8692C48.4693 22.6966 48.5384 22.524 48.616 22.3514C48.6851 22.1788 48.7541 22.0062 48.8145 21.8336C48.8836 21.661 48.9353 21.4884 48.9871 21.3158C49.0389 21.1432 49.082 20.9706 49.1252 20.798C49.1683 20.6254 49.2029 20.4529 49.2374 20.2803C49.2719 20.1077 49.3064 19.9351 49.3323 19.7625C49.3496 19.5899 49.3582 19.4173 49.3755 19.2447C49.3841 19.0721 49.41 18.8995 49.4272 18.7269C49.4359 18.5543 49.4531 18.3817 49.4531 18.2091C49.4445 18.0365 49.4186 17.8639 49.4014 17.6913C49.3841 17.5187 49.3668 17.3461 49.3409 17.1735C49.3151 17.0009 49.2892 16.8283 49.2546 16.6557C49.2288 16.4831 49.1942 16.3105 49.1511 16.1379C49.1079 15.9653 49.0562 15.7927 49.013 15.6201C48.9612 15.4475 48.9095 15.2749 48.8404 15.1023C48.78 14.9297 48.7196 14.7571 48.6333 14.5845C48.5556 14.4119 48.4607 14.2393 48.3658 14.0667C48.2708 13.8941 48.1759 13.7215 48.0637 13.5489C47.9602 13.3763 47.848 13.2037 47.7185 13.0311C47.5977 12.8585 47.4683 12.6859 47.3302 12.5133C47.1835 12.3407 47.0281 12.1682 46.8642 12.0042C46.7002 11.8488 46.519 11.6935 46.3464 11.5554C46.1738 11.4087 46.0012 11.262 45.8286 11.1412C45.656 11.0117 45.4834 10.9168 45.3108 10.8046C45.1382 10.7011 44.9656 10.5889 44.793 10.494C44.6204 10.399 44.4478 10.3127 44.2752 10.2351C44.1026 10.1574 43.93 10.0797 43.7574 10.0107C43.5848 9.94164 43.4122 9.8726 43.2396 9.82082C43.067 9.76041 42.8944 9.71726 42.7218 9.67411C42.5492 9.63096 42.3766 9.59644 42.204 9.56192C42.0314 9.53603 41.8588 9.51014 41.6862 9.48425C41.5136 9.46699 41.341 9.4411 41.1684 9.42385C40.9958 9.40659 40.8232 9.40659 40.6506 9.40659C40.478 9.40659 40.3054 9.40659 40.1328 9.41522C39.9603 9.43248 39.7877 9.45837 39.6151 9.47562C39.4425 9.50151 39.2699 9.51877 39.0973 9.54466C38.9247 9.57918 38.7521 9.6137 38.5795 9.65685C38.4069 9.7 38.2343 9.75178 38.0617 9.81219C37.8891 9.86397 37.7165 9.93301 37.5439 10.002C37.3713 10.0711 37.1987 10.1401 37.0261 10.2264C36.8535 10.3127 36.6809 10.4163 36.5083 10.5112C36.3357 10.6148 36.1631 10.7183 35.9905 10.8219C35.8179 10.9341 35.6453 11.0463 35.4727 11.1757C35.3001 11.3052 35.1275 11.4432 34.9549 11.5899C34.7823 11.7453 34.6011 11.9179 34.4371 12.0732C34.2732 12.2286 34.1178 12.3666 33.9538 12.5306C33.7985 12.6946 33.6432 12.8585 33.4965 13.0311C33.3411 13.2037 33.1944 13.3763 33.0477 13.5489C32.901 13.7215 32.7543 13.8941 32.6162 14.0667C32.4781 14.2393 32.3573 14.4119 32.2279 14.5845C32.0984 14.7571 31.969 14.9297 31.8395 15.1023C31.7101 15.2749 31.5806 15.4734 31.4425 15.6201C31.3045 15.7582 31.1232 15.948 30.9938 15.9739C30.8557 15.9998 30.7004 15.8876 30.6313 15.7754C30.5537 15.6546 30.5709 15.4475 30.5537 15.2749C30.545 15.1023 30.5537 14.9297 30.5537 14.7571C30.5537 14.5845 30.5537 14.4119 30.5537 14.2393C30.5537 14.0667 30.5537 13.8941 30.5537 13.7215C30.5537 13.5489 30.5623 13.3763 30.5537 13.2037C30.545 13.0311 30.5278 12.8585 30.5191 12.6859C30.5019 12.5133 30.4846 12.3407 30.4674 12.1682C30.4501 11.9956 30.4328 11.823 30.4156 11.6504C30.3983 11.4778 30.3811 11.3052 30.3552 11.1326C30.3293 10.96 30.3034 10.7874 30.2775 10.6148C30.243 10.4422 30.2171 10.2696 30.1826 10.097C30.1567 9.92438 30.1222 9.75178 30.0876 9.57918C30.0445 9.40659 30.0014 9.23399 29.9582 9.06139C29.9151 8.88879 29.8719 8.71619 29.8288 8.5436C29.7856 8.371 29.7425 8.1984 29.6907 8.0258C29.6389 7.8532 29.5785 7.68061 29.5181 7.50801C29.4577 7.33541 29.4059 7.16281 29.3369 6.99021C29.2764 6.81762 29.2074 6.64502 29.1384 6.47242C29.0607 6.29982 28.9744 6.12723 28.8881 5.95463C28.8104 5.78203 28.7155 5.60943 28.6292 5.43683C28.5343 5.26424 28.4307 5.09164 28.3358 4.91904C28.2409 4.74644 28.1632 4.57384 28.051 4.40125C27.9474 4.22865 27.818 4.05605 27.6972 3.88345C27.5677 3.71085 27.4383 3.53826 27.3002 3.36566C27.1621 3.19306 27.0154 3.01183 26.8687 2.84787C26.7134 2.6839 26.5667 2.51993 26.4027 2.36459C26.2473 2.21788 26.0661 2.07117 25.8935 1.9331C25.7209 1.79502 25.5483 1.65694 25.3757 1.53612C25.2031 1.4153 25.0305 1.30311 24.8579 1.19956C24.6853 1.096 24.5127 1.01833 24.3401 0.932029C24.1675 0.8371 23.9949 0.750801 23.8223 0.673132C23.6497 0.595463 23.4772 0.526424 23.3046 0.466014C23.132 0.396975 22.9594 0.345196 22.7868 0.293417C22.6142 0.250267 22.4416 0.198488 22.269 0.163968C22.0964 0.129449 21.9238 0.103559 21.7512 0.0776692C21.5786 0.0517795 21.406 0.0258896 21.2334 0.00862976C21.0608 -1.3181e-07 20.8882 0 20.7156 0C20.543 0 20.3704 0 20.1978 0C20.0252 0 19.8267 -1.3181e-07 19.68 0.00862976C19.5333 0.00862976 19.4815 0.0172599 19.3348 0.0345197Z" fill="#B091E7"/>
<path d="M27.6204 26.9583C27.5635 26.9769 27.497 27.005 27.44 27.0516C27.383 27.089 27.345 27.145 27.307 27.201C27.2595 27.2571 27.2215 27.3224 27.1741 27.3878C27.1361 27.4531 27.0886 27.5092 27.0411 27.5745C26.9936 27.6399 26.9366 27.6959 26.8891 27.7613C26.8417 27.8266 26.8132 27.8826 26.7562 27.948C26.6992 28.0134 26.6327 28.0694 26.5757 28.1347C26.5092 28.2001 26.4523 28.2655 26.3858 28.3215C26.3193 28.3775 26.2623 28.4242 26.1958 28.4802C26.1294 28.5269 26.0724 28.5643 26.0059 28.6109C25.9394 28.6576 25.8824 28.7323 25.8159 28.779C25.7495 28.8257 25.6925 28.863 25.626 28.9004C25.5595 28.9377 25.5025 28.9657 25.4361 28.9938C25.3696 29.0311 25.3126 29.0591 25.2461 29.0871C25.1796 29.1245 25.1226 29.1525 25.0562 29.1805C24.9897 29.2178 24.9327 29.2459 24.8662 29.2739C24.7997 29.3112 24.7427 29.3392 24.6763 29.3672C24.6098 29.3953 24.5528 29.4233 24.4863 29.4419C24.4198 29.4606 24.3629 29.4886 24.2964 29.5073C24.2299 29.526 24.1729 29.5446 24.1064 29.5633C24.0399 29.582 23.983 29.61 23.9165 29.6193C23.85 29.6287 23.793 29.6287 23.7265 29.638C23.6601 29.6474 23.6031 29.6754 23.5366 29.694C23.4701 29.7034 23.4131 29.7127 23.3466 29.722C23.2802 29.722 23.2232 29.722 23.1567 29.722C23.0902 29.722 23.0332 29.722 22.9667 29.722C22.9003 29.722 22.8433 29.722 22.7768 29.722C22.7103 29.722 22.6533 29.722 22.5869 29.7314C22.5204 29.7407 22.4634 29.7594 22.3969 29.7967C22.3304 29.8248 22.2639 29.8714 22.207 29.9181C22.15 29.9648 22.093 30.0395 22.055 30.0955C22.017 30.1609 22.0075 30.2169 21.9885 30.2823C21.9695 30.3476 21.941 30.4037 21.9315 30.469C21.9315 30.5344 21.941 30.5904 21.9505 30.6558C21.9695 30.7211 21.9885 30.7771 22.017 30.8425C22.0455 30.9079 22.074 30.9732 22.1215 31.0292C22.169 31.0853 22.2449 31.1413 22.3019 31.1786C22.3589 31.216 22.4254 31.2253 22.4919 31.244C22.5584 31.2627 22.6153 31.2907 22.6818 31.3C22.7483 31.3094 22.8053 31.3094 22.8718 31.3094C22.9383 31.3094 22.9952 31.3094 23.0617 31.3094C23.1282 31.3094 23.1852 31.3094 23.2517 31.3094C23.3181 31.3 23.3751 31.2907 23.4416 31.2813C23.5081 31.2627 23.5651 31.2347 23.6316 31.2253C23.698 31.216 23.755 31.216 23.8215 31.216C23.888 31.216 23.945 31.216 24.0115 31.2066C24.0779 31.1973 24.1349 31.1693 24.2014 31.1506C24.2679 31.1413 24.3249 31.1319 24.3913 31.1133C24.4578 31.1039 24.5148 31.0759 24.5813 31.0572C24.6478 31.0479 24.7048 31.0386 24.7712 31.0199C24.8377 31.0012 24.8947 30.9826 24.9612 30.9545C25.0277 30.9359 25.0847 30.8985 25.1511 30.8705C25.2176 30.8518 25.2746 30.8332 25.3411 30.8145C25.4076 30.7865 25.4645 30.7585 25.531 30.7211C25.5975 30.6931 25.6545 30.6651 25.721 30.6371C25.7875 30.5997 25.8444 30.5717 25.9109 30.5437C25.9774 30.5064 26.0344 30.4784 26.1009 30.4503C26.1673 30.413 26.2243 30.385 26.2908 30.3476C26.3573 30.3196 26.4143 30.2916 26.4808 30.2543C26.5472 30.2169 26.6042 30.1702 26.6707 30.1235C26.7372 30.0862 26.7942 30.0395 26.8607 29.9928C26.9271 29.9461 26.9841 29.8901 27.0506 29.8434C27.1171 29.7967 27.1741 29.7687 27.2405 29.7127C27.307 29.6567 27.364 29.5913 27.4305 29.5353C27.497 29.4699 27.554 29.4139 27.6204 29.3486C27.6869 29.2832 27.7439 29.2272 27.8104 29.1618C27.8674 29.0965 27.9339 29.0404 27.9908 28.9751C28.0478 28.9097 28.0763 28.8537 28.1238 28.7883C28.1713 28.723 28.2283 28.667 28.2758 28.6016C28.3232 28.5362 28.3612 28.4802 28.4087 28.4149C28.4562 28.3495 28.5227 28.2935 28.5607 28.2281C28.5987 28.1628 28.6367 28.1067 28.6651 28.0414C28.6936 27.976 28.7126 27.92 28.7316 27.8546C28.7411 27.7893 28.7601 27.7333 28.7601 27.6679C28.7601 27.6025 28.7506 27.5465 28.7316 27.4812C28.7031 27.4158 28.6746 27.3504 28.6367 27.2944C28.6082 27.2384 28.5797 27.1824 28.5417 27.1357C28.4942 27.089 28.4372 27.0516 28.3802 27.0143C28.3232 26.9769 28.2568 26.9489 28.1903 26.9303C28.1238 26.9116 28.0668 26.9209 28.0003 26.9209C27.9338 26.9209 27.8769 26.9209 27.8104 26.9209C27.7439 26.9303 27.6869 26.9303 27.6204 26.9583ZM26.7657 22.0003C26.6992 22.019 26.6422 22.0376 26.5757 22.0656C26.5092 22.0937 26.4523 22.1217 26.3858 22.159C26.3193 22.1964 26.2623 22.2337 26.1958 22.2804C26.1294 22.3271 26.0724 22.3831 26.0059 22.4391C25.9489 22.4952 25.8729 22.5605 25.8254 22.6259C25.778 22.6912 25.74 22.7473 25.702 22.8126C25.664 22.878 25.6355 22.934 25.607 22.9994C25.5785 23.0647 25.55 23.1207 25.531 23.1861C25.512 23.2515 25.4835 23.3075 25.4645 23.3728C25.455 23.4382 25.4455 23.4942 25.4361 23.5596C25.4361 23.6249 25.4361 23.681 25.4361 23.7463C25.4361 23.8117 25.4361 23.8677 25.4361 23.9331C25.4455 23.9984 25.455 24.0544 25.4645 24.1198C25.4835 24.1852 25.5025 24.2412 25.5215 24.3065C25.5405 24.3719 25.5405 24.4279 25.5595 24.4933C25.588 24.5586 25.6165 24.6147 25.6545 24.68C25.6925 24.7454 25.74 24.8014 25.7875 24.8668C25.8254 24.9321 25.8634 24.9882 25.9204 25.0535C25.9774 25.1095 26.0439 25.1842 26.1009 25.2309C26.1673 25.2776 26.2243 25.315 26.2908 25.3523C26.3573 25.3896 26.4143 25.4177 26.4808 25.4457C26.5472 25.483 26.6042 25.5204 26.6707 25.539C26.7372 25.5671 26.7942 25.5951 26.8607 25.6044C26.9271 25.6137 26.9841 25.6137 27.0506 25.6137C27.1171 25.6137 27.1741 25.6137 27.2405 25.6137C27.307 25.6137 27.364 25.6137 27.4305 25.6137C27.497 25.6137 27.554 25.6137 27.6204 25.6137C27.6869 25.6137 27.7439 25.6137 27.8104 25.6044C27.8769 25.5951 27.9338 25.5671 28.0003 25.539C28.0668 25.5204 28.1238 25.483 28.1903 25.4457C28.2568 25.4177 28.3137 25.3896 28.3802 25.3523C28.4467 25.315 28.5037 25.2776 28.5702 25.2309C28.6272 25.1842 28.6936 25.1095 28.7506 25.0535C28.8076 24.9882 28.8456 24.9321 28.8836 24.8668C28.9311 24.8014 28.9786 24.7454 29.0165 24.68C29.0545 24.6147 29.083 24.5586 29.1115 24.4933C29.1305 24.4279 29.1495 24.3719 29.1685 24.3065C29.1875 24.2412 29.216 24.1852 29.2255 24.1198C29.235 24.0544 29.235 23.9984 29.235 23.9331C29.235 23.8677 29.235 23.8117 29.235 23.7463C29.235 23.681 29.235 23.6249 29.235 23.5596C29.2255 23.4942 29.216 23.4382 29.2065 23.3728C29.1875 23.3075 29.159 23.2515 29.14 23.1861C29.121 23.1207 29.0925 23.0647 29.064 22.9994C29.0355 22.934 29.007 22.878 28.9691 22.8126C28.9311 22.7473 28.8931 22.6912 28.8456 22.6259C28.7981 22.5605 28.7221 22.4952 28.6651 22.4391C28.5987 22.3831 28.5417 22.3271 28.4752 22.2804C28.4087 22.2431 28.3517 22.215 28.2852 22.187C28.2188 22.1497 28.1618 22.1217 28.0953 22.0937C28.0288 22.0563 27.9718 22.0283 27.9054 22.0003C27.8389 21.9816 27.7819 21.9816 27.7154 21.9723C27.6489 21.9723 27.5919 21.9723 27.5255 21.9723C27.459 21.9723 27.402 21.9723 27.3355 21.9723C27.269 21.9723 27.2121 21.9723 27.1456 21.9723C27.0791 21.9723 27.0221 21.9723 26.9556 21.9723C26.8891 21.9816 26.8322 21.991 26.7657 22.0003ZM17.2683 21.9069C17.2019 21.9349 17.1449 21.9629 17.0784 22.0003C17.0119 22.0283 16.9549 22.0563 16.8885 22.0937C16.822 22.1217 16.765 22.1497 16.6985 22.187C16.632 22.2337 16.575 22.2897 16.5086 22.3458C16.4516 22.4018 16.3851 22.4671 16.3281 22.5325C16.2711 22.5979 16.2331 22.6539 16.1952 22.7192C16.1477 22.7846 16.1097 22.8406 16.0717 22.906C16.0432 22.9713 16.0242 23.0274 16.0052 23.0927C15.9862 23.1581 15.9672 23.2141 15.9482 23.2795C15.9292 23.3448 15.9197 23.4008 15.9102 23.4662C15.8912 23.5316 15.8627 23.5876 15.8532 23.653C15.8437 23.7183 15.8438 23.7743 15.8438 23.8397C15.8532 23.9051 15.8627 23.9611 15.8722 24.0264C15.8912 24.0918 15.9102 24.1478 15.9292 24.2132C15.9482 24.2785 15.9482 24.3346 15.9672 24.3999C15.9957 24.4653 16.0242 24.5213 16.0622 24.5867C16.0907 24.652 16.1192 24.708 16.1572 24.7734C16.1951 24.8388 16.2426 24.8948 16.2901 24.9601C16.3281 25.0255 16.3661 25.0909 16.4231 25.1469C16.4801 25.2029 16.5466 25.2589 16.6035 25.3056C16.67 25.3523 16.727 25.3896 16.7935 25.427C16.86 25.4643 16.9169 25.4924 16.9834 25.5204C17.0499 25.5484 17.1069 25.5671 17.1734 25.5857C17.2399 25.6044 17.2968 25.6231 17.3633 25.6417C17.4298 25.6604 17.4868 25.6884 17.5533 25.6978C17.6198 25.7071 17.6767 25.7071 17.7432 25.7071C17.8097 25.7071 17.8667 25.7071 17.9332 25.7071C17.9996 25.7071 18.0566 25.7071 18.1231 25.6978C18.1896 25.6884 18.2466 25.6604 18.3131 25.6417C18.3795 25.6324 18.4365 25.6231 18.503 25.6044C18.5695 25.5857 18.6265 25.5671 18.6929 25.539C18.7594 25.511 18.8164 25.4643 18.8829 25.427C18.9494 25.3896 19.0064 25.3523 19.0728 25.3056C19.1393 25.2589 19.2058 25.2029 19.2628 25.1469C19.3198 25.0909 19.3768 25.0255 19.4242 24.9601C19.4622 24.8948 19.4907 24.8388 19.5192 24.7734C19.5572 24.708 19.5857 24.652 19.6142 24.5867C19.6522 24.5213 19.6807 24.4653 19.7092 24.3999C19.7282 24.3346 19.7282 24.2785 19.7377 24.2132C19.7472 24.1478 19.7566 24.0918 19.7661 24.0264C19.7851 23.9611 19.8136 23.9051 19.8231 23.8397C19.8231 23.7743 19.8136 23.7183 19.8041 23.653C19.7851 23.5876 19.7566 23.5316 19.7471 23.4662C19.7377 23.4008 19.7377 23.3448 19.7282 23.2795C19.7187 23.2141 19.6902 23.1581 19.6712 23.0927C19.6522 23.0274 19.6332 22.9713 19.6142 22.906C19.5857 22.8406 19.5572 22.7846 19.5097 22.7192C19.4717 22.6539 19.4147 22.5979 19.3578 22.5325C19.3008 22.4671 19.2343 22.4018 19.1678 22.3458C19.1013 22.2897 19.0443 22.2337 18.9779 22.187C18.9114 22.1497 18.8544 22.1217 18.7879 22.0937C18.7214 22.0563 18.6645 22.0283 18.598 22.0003C18.5315 21.9629 18.4745 21.9349 18.408 21.9069C18.3415 21.8882 18.2846 21.8882 18.2181 21.8789C18.1516 21.8789 18.0946 21.8789 18.0281 21.8789C17.9617 21.8789 17.9047 21.8789 17.8382 21.8789C17.7717 21.8789 17.7147 21.8789 17.6482 21.8789C17.5818 21.8789 17.5248 21.8789 17.4583 21.8789C17.3918 21.8882 17.3348 21.8882 17.2683 21.9069Z" fill="#111111"/>
</svg>
